<?xml version="1.0" standalone="no"?>
<!DOCTYPE svg PUBLIC "-//W3C//DTD SVG 20010904//EN"
 "http://www.w3.org/TR/2001/REC-SVG-20010904/DTD/svg10.dtd">
<svg version="1.0" xmlns="http://www.w3.org/2000/svg"
 width="1130.000000pt" height="1280.000000pt" viewBox="0 0 1130.000000 1280.000000"
 preserveAspectRatio="xMidYMid meet">
<g transform="translate(0.000000,1280.000000) scale(0.100000,-0.100000)"
fill="#000000" stroke="none">
<path d="M10601 12775 c-23 -20 -31 -36 -33 -68 l-3 -42 -70 -3 c-85 -3 -118
-9 -110 -22 3 -6 44 -10 91 -10 77 0 84 -2 84 -20 0 -19 -7 -20 -90 -20 -116
0 -118 -18 -2 -22 79 -3 87 -5 87 -23 0 -18 -8 -20 -87 -23 -116 -4 -114 -22
2 -22 83 0 90 -2 90 -20 0 -17 -8 -19 -87 -22 -115 -4 -115 -22 0 -26 77 -2
88 -5 85 -20 -3 -14 -18 -17 -91 -20 -48 -1 -87 -7 -87 -12 0 -5 39 -11 88
-12 79 -3 87 -5 87 -23 0 -18 -8 -20 -87 -23 -116 -4 -114 -22 2 -22 83 0 90
-1 90 -20 0 -18 -7 -20 -84 -20 -47 0 -88 -4 -91 -10 -4 -6 22 -10 72 -10 84
0 109 -9 100 -34 -5 -13 -23 -16 -92 -16 -112 0 -110 -18 2 -22 74 -3 88 -6
91 -20 3 -16 -5 -18 -65 -18 -37 0 -78 -3 -90 -6 -45 -12 -10 -24 73 -24 77 0
84 -2 84 -20 0 -19 -7 -20 -90 -20 -116 0 -118 -18 -2 -22 79 -3 87 -5 87 -23
0 -18 -8 -20 -87 -23 -116 -4 -114 -22 2 -22 83 0 90 -2 90 -20 0 -17 -8 -19
-87 -22 -115 -4 -115 -22 0 -26 77 -2 88 -5 85 -20 -3 -14 -18 -17 -91 -20
-112 -4 -114 -22 -2 -22 69 0 87 -3 92 -16 9 -25 -16 -34 -99 -34 -45 0 -78
-4 -78 -10 0 -6 37 -10 90 -10 83 0 90 -1 90 -20 0 -19 -7 -20 -90 -20 -53 0
-90 -4 -90 -10 0 -6 33 -10 78 -10 83 0 108 -9 99 -34 -5 -13 -23 -16 -92 -16
-50 0 -85 -4 -85 -10 0 -6 34 -10 83 -10 51 0 88 -5 95 -12 17 -17 17 -1099 0
-1116 -8 -8 -56 -12 -150 -12 l-138 0 0 -840 0 -840 370 0 370 0 0 840 0 840
-138 0 c-94 0 -142 4 -150 12 -9 9 -12 146 -12 554 0 298 3 549 6 558 5 13 23
16 95 16 53 0 89 4 89 10 0 6 -35 10 -85 10 -69 0 -87 3 -92 16 -9 25 16 34
100 34 50 0 76 4 72 10 -3 6 -44 10 -91 10 -77 0 -84 2 -84 20 0 19 7 20 90
20 53 0 90 4 90 10 0 6 -33 10 -77 10 -84 0 -109 9 -100 34 5 13 23 16 92 16
50 0 85 4 85 10 0 6 -37 10 -90 10 -83 0 -90 2 -90 20 0 17 8 19 88 22 49 2
87 7 87 13 0 6 -38 11 -87 13 -80 3 -88 5 -88 22 0 18 7 20 90 20 53 0 90 4
90 10 0 6 -35 10 -84 10 -57 0 -87 4 -95 13 -21 26 9 37 96 37 49 0 83 4 83
10 0 6 -37 10 -90 10 -83 0 -90 1 -90 20 0 18 7 20 84 20 83 0 118 12 73 24
-12 3 -52 6 -88 6 -71 0 -85 6 -68 27 8 9 37 13 95 13 49 0 84 4 84 10 0 6
-35 10 -84 10 -60 0 -87 4 -95 14 -19 23 18 36 104 36 48 0 74 4 70 10 -3 6
-44 10 -91 10 -77 0 -84 2 -84 20 0 19 7 20 90 20 53 0 90 4 90 10 0 6 -35 10
-84 10 -57 0 -87 4 -95 13 -21 26 9 37 96 37 49 0 83 4 83 10 0 6 -37 10 -90
10 -83 0 -90 2 -90 20 0 17 8 19 88 22 49 2 87 7 87 13 0 6 -38 11 -87 13 -80
3 -88 5 -88 22 0 18 7 20 90 20 116 0 118 18 3 22 -80 3 -88 5 -88 23 0 18 8
20 88 23 115 4 113 22 -3 22 -83 0 -90 1 -90 20 0 18 7 20 84 20 47 0 88 4 91
10 8 13 -25 19 -110 22 l-70 3 -3 42 c-2 32 -10 48 -33 68 -17 14 -34 25 -39
25 -5 0 -22 -11 -39 -25z"/>
<path d="M612 12087 c-44 -14 -118 -80 -145 -131 -19 -35 -22 -56 -22 -146 1
-127 34 -262 95 -385 l40 -81 0 -890 0 -891 -30 -54 c-59 -107 -110 -299 -110
-413 0 -161 101 -276 243 -276 128 0 221 84 247 222 19 98 -40 349 -111 475
l-29 53 0 886 0 886 40 81 c46 96 84 223 100 334 12 91 -3 167 -45 231 -60 91
-172 132 -273 99z"/>
<path d="M1312 12087 c-49 -15 -122 -85 -148 -142 -18 -39 -24 -67 -24 -126 0
-102 47 -286 100 -393 l40 -82 0 -890 0 -891 -30 -54 c-59 -107 -110 -299
-110 -413 0 -161 101 -276 243 -276 70 0 112 16 165 64 54 49 85 123 85 206 0
115 -47 294 -108 414 l-35 70 0 884 0 884 40 81 c72 148 118 355 100 450 -32
164 -174 260 -318 214z"/>
<path d="M2012 12087 c-49 -15 -122 -85 -148 -142 -18 -38 -24 -68 -24 -122 0
-120 49 -308 111 -422 l29 -55 0 -887 0 -887 -40 -84 c-85 -179 -121 -388 -86
-495 35 -106 125 -173 231 -173 144 0 247 115 247 274 -1 120 -61 339 -121
437 -21 34 -21 44 -21 925 l0 891 30 54 c68 123 125 367 109 467 -25 163 -174
265 -317 219z"/>
<path d="M4776 11509 c-62 -15 -153 -68 -197 -116 -22 -24 -55 -74 -72 -111
l-32 -67 -3 -1187 -2 -1188 650 0 650 0 -2 1188 -3 1187 -32 67 c-44 93 -100
151 -191 196 l-76 37 -325 2 c-180 1 -343 -3 -365 -8z"/>
<path d="M6281 11107 c-19 -7 -44 -25 -55 -40 -21 -28 -21 -38 -24 -562 l-3
-534 -39 -11 c-59 -16 -90 -59 -90 -127 0 -46 3 -56 20 -60 28 -8 25 -24 -15
-74 -19 -24 -45 -69 -57 -99 -22 -53 -23 -70 -26 -408 l-3 -352 613 2 613 3 0
345 c0 337 -1 346 -23 402 -13 32 -41 81 -62 110 -39 51 -42 68 -15 68 35 0
31 117 -5 155 -12 13 -38 27 -59 32 l-36 9 -5 535 c-6 597 -3 574 -75 605 -45
19 -601 19 -654 1z"/>
<path d="M9440 10993 c-8 -3 -19 -12 -23 -19 -4 -8 -15 -14 -22 -14 -22 0 -18
-17 5 -23 28 -7 27 -53 -2 -68 l-23 -12 23 -10 c30 -14 30 -60 0 -75 l-23 -11
23 -7 c19 -5 22 -13 20 -38 -3 -30 -4 -31 -60 -34 l-58 -3 0 -929 0 -930 365
0 365 0 0 930 0 930 -54 0 c-59 0 -82 16 -71 48 3 11 16 23 28 26 l22 7 -22
11 c-12 6 -24 17 -27 24 -8 21 2 40 27 52 l22 11 -22 7 c-24 7 -39 37 -28 55
4 6 16 14 27 18 18 6 16 10 -19 34 l-39 27 -210 -1 c-115 0 -216 -3 -224 -6z"/>
<path d="M9385 7471 c-106 -13 -130 -37 -128 -125 1 -33 7 -81 13 -106 10 -44
33 -216 140 -1055 153 -1197 172 -1326 199 -1364 27 -38 55 -48 191 -66 167
-23 430 -30 600 -16 267 22 316 36 353 99 20 33 24 66 112 917 75 726 168
1398 208 1495 5 14 12 53 14 88 6 76 -10 106 -64 123 -44 13 -1535 23 -1638
10z"/>
<path d="M6160 7270 c0 -5 5 -10 11 -10 5 0 7 5 4 10 -3 6 -8 10 -11 10 -2 0
-4 -4 -4 -10z"/>
<path d="M967 6713 c-4 -3 -7 -183 -7 -400 l0 -393 190 0 190 0 0 400 0 400
-183 0 c-101 0 -187 -3 -190 -7z"/>
<path d="M4901 6674 c-125 -33 -247 -134 -332 -274 -50 -81 -495 -948 -521
-1016 -24 -61 -48 -186 -48 -251 1 -131 49 -267 135 -379 72 -94 121 -115 169
-71 14 13 219 408 485 938 346 688 461 925 461 951 0 43 -31 85 -76 104 -44
18 -202 17 -273 -2z"/>
<path d="M5283 6319 c-50 -15 -64 -45 -70 -152 -3 -52 -3 -106 1 -121 l6 -26
963 2 962 3 -3 113 c-3 123 -8 143 -49 170 -25 16 -87 17 -903 19 -534 1 -888
-2 -907 -8z"/>
<path d="M5140 5923 c-33 -6 -68 -39 -75 -72 -6 -31 16 -210 45 -349 84 -413
270 -740 481 -847 103 -52 130 -55 589 -55 257 0 443 5 470 11 298 68 525 446
620 1033 35 212 26 258 -55 276 -40 9 -2025 12 -2075 3z"/>
<path d="M1845 5887 c-3 -7 -4 -127 -3 -267 l3 -255 98 -3 97 -3 0 271 0 270
-95 0 c-68 0 -97 -4 -100 -13z"/>
<path d="M967 5874 c-4 -4 -7 -368 -7 -808 0 -898 -4 -846 73 -913 86 -76 206
-58 274 40 l28 40 0 821 0 821 -181 3 c-99 1 -183 -1 -187 -4z"/>
<path d="M1845 5298 c-3 -13 -4 -266 -3 -563 3 -500 4 -542 21 -573 38 -70
117 -72 159 -4 26 42 25 7 21 745 l-3 417 -95 0 c-90 0 -95 -1 -100 -22z"/>
<path d="M9559 4738 c-8 -15 -12 -98 -13 -263 -1 -264 1 -273 61 -312 25 -17
68 -18 564 -18 527 0 538 0 565 21 66 49 69 57 72 267 4 182 -6 299 -27 320
-4 4 -54 0 -112 -11 -189 -36 -292 -46 -499 -45 -203 0 -365 15 -523 49 -38 8
-70 14 -72 14 -2 0 -10 -10 -16 -22z"/>
<path d="M9178 3348 c-47 -12 -113 -69 -141 -122 -22 -41 -22 -43 -25 -650 -2
-412 1 -626 8 -662 8 -38 23 -65 53 -100 74 -84 8 -78 937 -84 l825 -5 0 -40
0 -40 -825 -5 c-780 -5 -827 -6 -860 -24 -49 -26 -88 -64 -113 -111 -22 -40
-22 -47 -25 -659 -3 -694 -3 -691 65 -761 20 -21 61 -48 90 -61 l54 -24 929 0
929 0 58 26 c76 33 100 57 134 131 l29 63 0 606 0 606 -30 64 c-22 46 -43 72
-75 95 -45 32 -45 33 -45 94 0 61 0 61 44 92 32 23 52 49 75 96 l31 65 0 607
0 607 -30 64 c-33 68 -74 107 -137 130 -31 11 -217 13 -978 13 -577 -1 -954
-5 -977 -11z"/>
<path d="M5510 3260 c0 -32 7 -61 20 -82 26 -42 26 -98 0 -131 -19 -24 -20
-40 -20 -365 l0 -341 -95 -45 c-370 -175 -620 -510 -679 -909 -20 -132 -20
-212 0 -345 38 -255 141 -466 319 -651 47 -49 112 -108 145 -132 53 -39 60
-47 60 -78 0 -54 34 -114 79 -139 39 -22 42 -22 592 -22 507 0 557 1 589 18
53 26 80 74 80 142 0 56 1 57 44 88 130 93 300 311 365 465 141 341 132 692
-26 1012 -136 274 -383 493 -673 596 -36 12 -68 28 -72 33 -4 6 -8 160 -8 342
0 282 2 333 15 344 12 10 34 9 108 -3 103 -18 253 -62 263 -78 3 -6 -4 -34
-17 -62 -34 -78 -39 -244 -10 -358 63 -249 253 -483 486 -599 132 -66 203 -83
324 -78 82 3 106 8 163 35 308 144 313 593 11 948 -236 278 -593 382 -824 240
l-55 -34 -87 29 c-93 32 -266 70 -315 70 -46 0 -62 23 -62 86 l0 54 -360 0
-360 0 0 -50z"/>
<path d="M2103 2396 c-115 -28 -234 -107 -296 -198 -20 -29 -103 -190 -183
-358 -304 -635 -844 -1780 -844 -1790 0 -6 5 -8 11 -4 11 6 587 775 883 1177
76 103 148 194 159 202 35 24 77 18 162 -25 150 -76 311 -76 472 -1 82 39 196
151 236 232 78 158 76 337 -6 494 -38 73 -153 190 -223 227 -103 55 -251 73
-371 44z m269 -165 c129 -50 224 -180 235 -323 15 -204 -115 -371 -320 -409
-199 -37 -400 109 -438 318 -33 178 88 367 276 430 57 18 177 11 247 -16z"/>
<path d="M405 2345 c-138 -38 -270 -136 -328 -243 -31 -57 -77 -224 -77 -280
0 -50 35 -172 68 -240 34 -69 140 -179 212 -220 80 -46 179 -65 303 -59 127 6
186 24 280 87 45 30 86 50 103 50 22 0 53 -26 156 -127 99 -99 132 -125 143
-118 20 13 135 250 135 277 0 45 -371 632 -466 737 -56 62 -127 108 -205 132
-73 23 -247 25 -324 4z"/>
<path d="M1610 1073 c-84 -117 -85 -118 -61 -152 24 -34 619 -620 703 -693 32
-27 58 -44 58 -36 0 14 -626 951 -638 955 -4 1 -32 -32 -62 -74z"/>
</g>
</svg>
